# xmcd
#
# Track frame offsets: 
#        150
#        16502
#        36957
#
# Disc length: 710 seconds
#
# Revision: 0
# Processed by: cddbd v1.5.1PL0 Copyright (c) Steve Scherf et al.
# Submitted via: ExactAudioCopy v0.95a5
#
DISCID=1502c403
DTITLE=Country Gitty - Highway to Heaven
DYEAR=2005
DGENRE=Country
TTITLE0=Highway to heaven
TTITLE1=Der Straﬂenmusikant
TTITLE2=Geh endlich geh
EXTD=
EXTT0=
EXTT1=
EXTT2=
PLAYORDER=
